<?xml version="1.0" encoding="utf-8"?>
<!-- Generator: Adobe Illustrator 28.1.0, SVG Export Plug-In . SVG Version: 6.00 Build 0)  -->
<svg version="1.1" id="Layer_1" xmlns="http://www.w3.org/2000/svg" xmlns:xlink="http://www.w3.org/1999/xlink" x="0px" y="0px"
	 viewBox="0 0 13 13" style="enable-background:new 0 0 13 13;" xml:space="preserve">
<style type="text/css">
	.st0{fill:#E6932B;}
</style>
<g>
	<g>
		<g>
			<g>
				<path class="st0" d="M6.5,13c-0.3,0-0.7-0.1-1-0.4L0.4,7.4C0.1,7.2,0,6.9,0,6.5s0.1-0.7,0.4-1l5.1-5.1c0.5-0.5,1.4-0.5,1.9,0
					l5.1,5.1c0.5,0.5,0.5,1.4,0,1.9l-5.1,5.1C7.2,12.9,6.8,13,6.5,13z M6.5,1C6.4,1,6.3,1,6.2,1.1L1.1,6.2C1,6.3,1,6.4,1,6.5
					s0,0.2,0.1,0.3l5.1,5.1c0.1,0.1,0.4,0.1,0.5,0l5.1-5.1c0.1-0.1,0.1-0.4,0-0.5L6.8,1.1C6.7,1,6.6,1,6.5,1z"/>
			</g>
		</g>
	</g>
	<g>
		<rect x="6" y="3.5" class="st0" width="1" height="3.7"/>
		<path class="st0" d="M6.5,9.1H5.7c0-0.4,0.3-0.8,0.8-0.8V9.1z"/>
		<path class="st0" d="M7.3,9.1H6.5V8.3C6.9,8.3,7.3,8.6,7.3,9.1z"/>
		<path class="st0" d="M6.5,9.9V9.1h0.8C7.3,9.5,6.9,9.9,6.5,9.9z"/>
		<path class="st0" d="M6.5,9.9c-0.4,0-0.8-0.3-0.8-0.8h0.8V9.9z"/>
	</g>
</g>
</svg>
