<?xml version="1.0" encoding="utf-8"?>
<!-- Generator: Adobe Illustrator 28.1.0, SVG Export Plug-In . SVG Version: 6.00 Build 0)  -->
<svg version="1.1" id="Layer_1" xmlns="http://www.w3.org/2000/svg" xmlns:xlink="http://www.w3.org/1999/xlink" x="0px" y="0px"
	 viewBox="0 0 120.2 26.3" style="enable-background:new 0 0 120.2 26.3;" xml:space="preserve">
<style type="text/css">
	.st0{fill:#FFFFFF;}
</style>
<g>
	<g>
		<polygon class="st0" points="60.3,11.5 60.3,8.7 49.9,8.7 49.9,11.5 53.6,11.5 53.6,21.1 56.6,21.1 56.6,11.5 		"/>
	</g>
	<g>
		<g>
			<path class="st0" d="M7.3,8.5c2.9,2.7,5.8,8.1,5.8,8.2c0,0,2.9-5.5,5.8-8.2l3.3,1.3c0,0-5.1,4.3-7.3,11.4h-3.8
				C9.1,14.1,4,9.7,4,9.7L7.3,8.5z M13.2,6.9c1.4,0,2.6,1.2,2.6,2.6c0,1.4-1.2,2.6-2.6,2.6c-1.4,0-2.6-1.2-2.6-2.6
				C10.6,8.1,11.8,6.9,13.2,6.9 M0,13.2c0,7.3,5.9,13.2,13.2,13.2c7.3,0,13.2-5.9,13.2-13.2C26.3,5.9,20.4,0,13.2,0h0
				C5.9,0,0,5.9,0,13.2"/>
		</g>
	</g>
	<g>
		<path class="st0" d="M45.4,21.1h3.1V8.7h-3.1V21.1z M40.9,8.7l-3.5,8.4l-3.5-8.4h-3.4l5.4,12.5H39l5.4-12.5H40.9z"/>
	</g>
	<g>
		<path class="st0" d="M114.7,8.5c-3.8,0-6.5,2.7-6.5,6.4c0,3.7,2.7,6.4,6.5,6.4c2.4,0,4.2-1.1,5.4-2.7l-2.4-1.7
			c-0.7,1.1-1.7,1.6-3,1.6c-1.8,0-3.4-1.3-3.4-3.6c0-2.1,1.4-3.6,3.4-3.6c1.3,0,2.3,0.6,2.9,1.6l2.6-1.5
			C119.1,9.6,117.1,8.5,114.7,8.5 M103,21.1h3.1V8.7H103V21.1z M97.1,8.7v7l-6-7h-2.3v12.4h3.1v-6.8l5.9,6.8h2.4V8.7H97.1z
			 M80.2,18.5c-2,0-3.4-1.6-3.4-3.6s1.4-3.6,3.4-3.6s3.4,1.6,3.4,3.6S82.2,18.5,80.2,18.5 M80.2,8.5c-3.7,0-6.6,2.8-6.6,6.4
			s2.8,6.4,6.6,6.4s6.6-2.8,6.6-6.4S83.9,8.5,80.2,8.5 M64.7,11.5H67c1.2,0,2.1,0.6,2.1,1.6c0,1-0.9,1.7-2.1,1.7h-2.3V11.5z
			 M73,21.1l-2.9-4.3c1.3-0.8,2.1-2.1,2.1-3.7c0-2.7-2.1-4.4-5.1-4.4h-5.4v12.4h3.1v-3.6H67h0l2.3,3.6H73z"/>
	</g>
</g>
<g>
</g>
<g>
</g>
<g>
</g>
<g>
</g>
<g>
</g>
<g>
</g>
<g>
</g>
<g>
</g>
<g>
</g>
<g>
</g>
<g>
</g>
<g>
</g>
<g>
</g>
<g>
</g>
<g>
</g>
</svg>
